# xmcd CD database file
#
# Track frame offsets:
#	150
#	1137
#	11735
#	30497
#	40550
#	65397
#	69995
#	78417
#	92010
#	137115
#	150912
#	176847
#	183700
#	184697
#	197222
#	203855
#	220547
#	237885
#	251322
#	270440
#	281522
#	301590
#
# Disc length: 4514 seconds
#
# Revision: 0
# Processed by: cddbd v1.5.2PL0 Copyright (c) Steve Scherf et al.
# Submitted via: CDex 1.70beta2
#
DISCID=1811a016
DTITLE=Helge Schneider - Dahumm!
DYEAR=1997
DGENRE=Jazz
TTITLE0=F-Dur
TTITLE1=Da Humm (Solo)
TTITLE2=Bonbon aus Wurst
TTITLE3=Ich drück die Maus
TTITLE4=Crazy, Crazy
TTITLE5=In der Fleischerei
TTITLE6=Wurstfachverkäuferin (Solo)
TTITLE7=Wurstfachverkäuferin (Band)
TTITLE8=Tiere
TTITLE9=Lord Fuck
TTITLE10=Misty
TTITLE11=Blub Blub
TTITLE12=Punkt
TTITLE13=Kleines Arschloch
TTITLE14=Du bist ich
TTITLE15=St. Thomas
TTITLE16=Politiker
TTITLE17=Konvolut
TTITLE18=Dahumm (Band)
TTITLE19=Blue Bossa
TTITLE20=The Making of Fitze, Fitze, Fatze (Solo)
TTITLE21=The Making of Fitze, Fitze, Fatze (Band)
EXTD=YEAR: 1997
EXTT0=
EXTT1=
EXTT2=
EXTT3=
EXTT4=
EXTT5=
EXTT6=
EXTT7=
EXTT8=
EXTT9=
EXTT10=
EXTT11=
EXTT12=
EXTT13=
EXTT14=
EXTT15=
EXTT16=
EXTT17=
EXTT18=
EXTT19=
EXTT20=
EXTT21=
PLAYORDER=
